<?xml version="1.0" encoding="utf-8"?>
<!-- Generator: Adobe Illustrator 16.0.3, SVG Export Plug-In . SVG Version: 6.00 Build 0)  -->
<!DOCTYPE svg PUBLIC "-//W3C//DTD SVG 1.1//EN" "http://www.w3.org/Graphics/SVG/1.1/DTD/svg11.dtd">
<svg version="1.1"
	 id="svg2" xmlns:sodipodi="http://sodipodi.sourceforge.net/DTD/sodipodi-0.dtd" xmlns:cc="http://creativecommons.org/ns#" xmlns:inkscape="http://www.inkscape.org/namespaces/inkscape" xmlns:rdf="http://www.w3.org/1999/02/22-rdf-syntax-ns#" xmlns:svg="http://www.w3.org/2000/svg" xmlns:dc="http://purl.org/dc/elements/1.1/" sodipodi:docname="desenho.svg" inkscape:version="0.45+0.46pre0+devel" inkscape:output_extension="org.inkscape.output.svg.inkscape" sodipodi:version="0.32"
	 xmlns="http://www.w3.org/2000/svg" xmlns:xlink="http://www.w3.org/1999/xlink" x="0px" y="0px" width="250px" height="550px"
	 viewBox="0 0 250 550" enable-background="new 0 0 250 550" xml:space="preserve">
<defs>
	
	
		<inkscape:perspective  inkscape:vp_x="-50 : 600 : 1" inkscape:vp_z="700 : 600 : 1" sodipodi:type="inkscape:persp3d" inkscape:vp_y="0 : 1000 : 0" inkscape:persp3d-origin="300 : 400 : 1" id="perspective2490">
		</inkscape:perspective>
	
		<inkscape:perspective  inkscape:vp_x="-50 : 600 : 1" inkscape:vp_z="700 : 600 : 1" sodipodi:type="inkscape:persp3d" inkscape:vp_y="0 : 1000 : 0" inkscape:persp3d-origin="300 : 400 : 1" id="perspective11">
		</inkscape:perspective>
	
		<inkscape:perspective  inkscape:vp_x="-50 : 600 : 1" inkscape:vp_z="700 : 600 : 1" sodipodi:type="inkscape:persp3d" inkscape:vp_y="0 : 1000 : 0" inkscape:persp3d-origin="300 : 400 : 1" id="perspective9">
		</inkscape:perspective>
</defs>
<sodipodi:namedview  inkscape:zoom="0.86979541" showgrid="false" pagecolor="#ffffff" bordercolor="#666666" borderopacity="1.0" inkscape:cx="12.068315" inkscape:cy="235.85263" inkscape:window-x="0" inkscape:window-height="975" inkscape:pageshadow="2" inkscape:pageopacity="0.0" inkscape:window-y="18" inkscape:current-layer="layer1" inkscape:document-units="px" inkscape:window-width="1280" id="base">
	</sodipodi:namedview>
<g>
	<g>
		<defs>
			<rect id="SVGID_1_" x="9.5" y="21.5" width="233" height="507"/>
		</defs>
		<clipPath id="SVGID_2_">
			<use xlink:href="#SVGID_1_"  overflow="visible"/>
		</clipPath>
		<g id="layer1" inkscape:label="Camada 1" inkscape:groupmode="layer" clip-path="url(#SVGID_2_)">
			<g id="g3296" transform="matrix(1.1069067,0,0,1.1069067,-286.79188,-320.52191)">
				<path id="path3292" d="M365.857,493.48c0.617-0.05,1.22-0.251,1.798-0.587l66.164-38.067c2.345-1.365,3.907-4.866,3.911-8.747
					c0-3.377,0.108-6.174,3.09-13.78c2.966-7.56,8.9-19.021,19.994-35.965c10.701-16.343,10.161-42.418,4.92-62.011
					c-0.553-2.081-1.616-3.636-2.903-4.642c-0.746-3.319-2.618-5.75-4.889-6.206c-2.396-0.482-4.739,1.313-5.96,4.544
					c-0.011,0-0.021,0-0.033,0c-0.016,0.044-0.046,0.105-0.063,0.147c-0.756,0.046-1.486,0.31-2.176,0.782
					c-0.266-2.052-0.836-3.952-1.892-5.327c-1.435-1.868-3.373-2.633-5.203-2.004c-3.525,1.222-8.665,0.162-15.044-0.537
					c-6.408-0.703-14.227-0.561-22.421,5.375c-0.799,0.578-1.451,1.318-2.114,2.004c-1.128-2.366-2.797-4.014-4.731-4.007
					c-4.514,0-8.523,0.751-12.268,1.857c-0.936-0.856-1.998-1.379-3.091-1.368c-2.551,0-5.147,0.346-7.727,1.026
					c-0.949-0.925-2.027-1.506-3.154-1.515c-1.445,0-2.821,0.284-4.163,0.587c-0.993-1.042-2.135-1.71-3.343-1.71
					c-5.267,0-10.092,1.356-14.538,3.469c-1.106-3.215-3.277-5.302-5.676-5.033c-5.006,0.596-9.468,2.169-13.498,4.349
					c-0.763-2.124-1.907-3.851-3.437-4.544c-4.969-2.256-9.726-2.228-14.097-0.978c-1.648-2.774-4.215-3.891-6.528-2.541
					c-5.326,3.101-9.626,7.286-13.214,11.972c-1.997-1.171-4.252-0.708-5.929,1.417c-7.32,9.343-11.662,21.304-12.709,34.108
					c-0.979,11.97,0.835,24.286,4.541,36.258c0.114,1.105,0.304,2.154,0.662,3.128c6.814,18.287,11.767,30.763,14.191,44.712
					c0.51,2.934,1.942,5.312,3.784,6.353l65.376,36.943C364.25,493.36,365.053,493.552,365.857,493.48z"/>
				<path id="path3187" d="M366.113,758.532c4.661,0,9.281-2.18,12.47-5.908c0.157-0.197,0.303-0.378,0.438-0.594
					c0,0,5.006-7.581,10.405-16.437c5.398-8.856,11.118-18.275,13.25-25.187c4.349-14.097,2.251-29.778-0.813-45.062
					c-3.062-15.283-7.277-30.327-8.469-42.187l-6.844-68.188c-0.492-4.891-0.716-8.267-0.251-10.5
					c0.468-2.234,1.311-3.86,4.656-6.687l45.437-38.406c2.564-2.165,4.157-5.417,4.157-8.719c0-3.302-1.593-6.522-4.157-8.687
					c-1.15-0.965-2.615-1.477-4.125-1.469h-132.25c-1.51-0.008-2.973,0.504-4.125,1.469c-2.562,2.165-4.156,5.386-4.156,8.687
					c0,3.301,1.594,6.553,4.156,8.719l45.156,38.156c3.273,2.766,4.224,4.737,4.75,7.312c0.526,2.576,0.333,6.061-0.125,10.594
					l-6.844,67.718c-1.198,11.864-5.383,26.903-8.437,42.187c-3.054,15.284-5.16,30.969-0.813,45.062
					c2.132,6.912,7.851,16.331,13.25,25.187c5.399,8.856,10.406,16.437,10.406,16.437c0.133,0.214,0.279,0.397,0.438,0.594
					C356.864,756.352,361.452,758.532,366.113,758.532z M363.645,698.749c-2.678,0-4.875-2.78-4.875-6.218
					c0-3.437,2.198-6.25,4.875-6.25c2.677,0,4.844,2.813,4.844,6.25C368.489,695.969,366.322,698.749,363.645,698.749z"/>
				<path id="path2506" fill="#3366FF" d="M363.301,483.893l65.562-39.297c0-9.302,2.281-22.614,24.657-58.214
					c8.083-12.862,8.055-35.977,3.562-53.472c-6.297,17.605-17.291,24.603-24.531,33.798c3.746-6.481,8.829-13.049,12.75-18.11
					c5.052-6.521,8.812-13.884,8.812-21.086c-4.154,11.614-7.601,15.987-11.75,20.229c-7.983,8.161-15.348,19.487-18.562,28.249
					c1.851-7.821,6.384-16.276,12-22.499c5.885-6.521,10.481-12.056,13.28-21.086c-8.881,8.685-15.607,8.296-20.719,11.855
					c-6.45,4.489-11.204,7.586-14.937,11.047c2.105-2.896,4.208-5.478,6.095-7.315c11.898-11.588,19.955-9.435,21.469-15.285
					c-9.405,3.437-23.605-6.176-34.251,2.27c-4.087,3.243-8.967,14.831-9.874,25.475c-0.268-3.488-0.026-7.009,0.905-10.896
					c1.602-6.357,3.704-11.503,7.158-15.336c11.302-12.543,28.983,3.122,36.063-8.676c-10.22,3.69-22.182-6.068-35.906,4.288
					c-5.188,3.915-9.753,11.189-10.906,24.264v3.38c-2.403-10.272,0.116-16.336,4.563-24.769
					c-7.501,3.244-11.178,11.929-11.719,22.146c-1.861-8.254-0.543-15.223,8.749-26.181c-23.308,0-33.494,17.779-34.218,35.009
					c-1.699-7.227-0.207-13.196,2.344-18.766c3.773-8.237,10.78-13.271,16.656-15.739c-5.332,0-10.515,1.284-14.344,5.398
					c-5.035,5.41-8.391,14.083-10.344,22.448c1.31-12.789,5.753-22.491,13.906-28.35c-11.491,0-21.189,14.402-24.969,28.552
					c1.185-14.208,9.828-26.111,17.531-29.712c-15.6,0-27.331,12.859-31.656,26.232c0.76-9.654,5.889-16.231,10.25-20.481
					c-7.737,4.432-13.452,11.117-15.5,19.674c1.937-12.612,8.675-18.989,17.312-27.039c-15.211,1.886-23.942,11.302-28.812,26.787
					c0.607-9.952,5.838-16.706,10.281-21.036c-6.073,3.479-10.05,8.068-12.187,14.024c1.365-5.912,5.066-11.521,11.812-20.38
					c-14.535-6.875-25.953,8.512-29.188,22.751c-1.245,5.48-1.621,12.804-1.218,20.582c-5.596-18.97,2.324-32.022,13.75-47.167
					c-21.916,13.293-23.903,41.164-18.531,65.125c-7.721-19.787-4.146-38.028,1.25-52.867
					c-12.536,16.669-13.454,39.488-5.844,63.309c-0.064,0.101-0.124,0.201-0.188,0.303c6.7,18.734,11.962,32.285,14.656,48.428
					L363.301,483.893z"/>
				<path id="rect2395" fill="#FFFFFF" d="M363.957,747.032c2.66,0,5.305-1.181,7.344-3.593c0-0.001,19.155-29.368,22.156-39.218
					c7.31-23.992-6.709-58.136-9.188-83.093l-6.626-66.844c-0.951-9.578-1.558-15.333,6.344-22.094l43.968-37.625
					c2.516-2.154,2.516-5.596,0-7.75h-128c-2.518,2.154-2.518,5.597,0,7.75l43.719,37.375c8.007,6.85,7.455,13.831,6.562,22.782
					l-6.625,66.407c-2.488,24.956-16.497,59.102-9.188,83.093c3.001,9.85,22.156,39.218,22.156,39.218
					C358.62,745.851,361.297,747.032,363.957,747.032z M361.332,707.312c-6.981,0-12.656-7.255-12.656-16.218
					c0-8.964,5.675-16.25,12.656-16.25s12.656,7.286,12.656,16.25S368.313,707.312,361.332,707.312z"/>
				<path id="path3183" d="M297.917,441.798c-1.633-0.088-3.215,0.657-4.173,1.665c-0.958,1.008-1.437,2.211-1.602,3.46
					c-2.108,15.887-2.505,31.605,0,46.878c0.195,1.187,0.661,2.359,1.602,3.363c0.941,1.004,2.54,1.782,4.173,1.697
					c46.446-2.409,91.9-2.106,136.644,0c1.624,0.076,3.19-0.661,4.139-1.665c0.951-1.004,1.424-2.205,1.602-3.428
					c2.161-14.79,1.502-33.391,0-46.78c-0.145-1.292-0.633-2.524-1.602-3.525c-0.967-1.002-2.509-1.716-4.106-1.665
					C387.467,443.305,342.17,444.186,297.917,441.798z"/>
				<path id="rect2391" sodipodi:nodetypes="cssssssss" fill="#FFFFFF" d="M299.882,444.634c41.568,2.293,84.021,1.443,128.157,0
					c1.351-0.045,2.292,1.096,2.439,2.439c1.382,12.617,1.963,30.325,0,44.068c-0.191,1.337-1.09,2.504-2.439,2.439
					c-41.961-2.019-84.572-2.312-128.157,0c-1.349,0.071-2.225-1.105-2.439-2.439c-2.289-14.274-1.948-29.054,0-44.068
					C297.617,445.733,298.533,444.559,299.882,444.634z"/>
				<path id="path3279" sodipodi:nodetypes="ccccccccccccsccccssssscccsscsc" d="M357.844,499.031
					c-15.445,0.084-31.016,0.602-46.744,1.563c-0.54,0-0.474,0.368,0.065,0.906l36.161,29.531c6.628,6.507,6.218,13.123,5.51,21.625
					l-5.237,69.094c-0.561,6.74-1.924,14.208-3.395,21.938c1.735-7.067,3.319-13.871,4.245-20.032l10.016-69.874
					c1.376-9.154,2.243-14.64-3.382-20.594l-31.748-27.156c-0.524-0.343-0.49-0.768,0.028-0.906
					c18.239-2.473,36.591-4.468,55.105-5.781c0.625-0.045,1.25-0.082,1.876-0.125C372.874,499.073,365.375,498.99,357.844,499.031z
					 M379.664,603.969l0.058,17.311c0.235,23.559,8.722,55.154,1.482,78.375c-2.659,8.53-16.288,32.547-19.162,37.652
					c-1.743,3.096-0.858,3.88,2.739,4.034c2.232,0.096,4.377-1.113,6.051-3.405c0,0,15.711-27.923,18.157-37.281
					c5.953-22.79-5.735-55.199-7.859-78.906L379.664,603.969z M352.036,686.625c-0.179,0.946-0.326,1.918-0.397,2.906
					c-0.603,8.515,3.271,15.069,8.643,14.657c0.737-0.056,1.478-0.264,2.185-0.563c-5.745-0.024-10.46-6.906-10.489-15.407
					C351.977,687.686,352.002,687.144,352.036,686.625z"/>
				<path id="path3287" d="M302.094,447.687c-1.302-0.065-2.176,0.952-2.344,2.125c-1.521,10.637-2.002,21.133-0.969,31.375
					c0.328-9.076,1.973-18.395,4.531-27.875c0.3-1.11,1.265-2.108,2.531-2.094c30.657,0.333,62.053-0.976,94.375-2.875
					C366.718,449.112,334.115,449.29,302.094,447.687z M428.719,455.406c-0.413,9.363-1.699,20.429-4.281,29.5
					c-0.316,1.109-1.295,2.1-2.563,2.094c-30.789-0.143-62.061,0.622-94,2.594c33.144-0.891,65.743-0.468,97.938,0.937
					c1.302,0.057,2.16-0.954,2.343-2.125C429.751,478.283,429.599,465.722,428.719,455.406z"/>
			</g>
		</g>
	</g>
</g>
</svg>
